<?xml version="1.0" standalone="no"?>
<!DOCTYPE svg PUBLIC "-//W3C//DTD SVG 20010904//EN"
 "http://www.w3.org/TR/2001/REC-SVG-20010904/DTD/svg10.dtd">
<svg version="1.0" xmlns="http://www.w3.org/2000/svg"
 width="2100.000000pt" height="1500.000000pt" viewBox="0 0 2100.000000 1500.000000"
 preserveAspectRatio="xMidYMid meet">

<g transform="translate(0.000000,1500.000000) scale(0.100000,-0.100000)"
fill="#000000" stroke="none">
<path d="M13045 12989 c-27 -5 -117 -16 -200 -26 -192 -21 -719 -24 -990 -4
-210 15 -257 10 -301 -34 -19 -19 -24 -35 -24 -76 0 -49 3 -55 43 -94 35 -33
65 -49 153 -79 163 -56 258 -109 334 -186 72 -71 90 -111 90 -196 0 -27 -5
-67 -11 -89 -6 -22 -138 -350 -294 -730 -407 -992 -591 -1444 -816 -2005 -110
-272 -208 -504 -219 -514 -18 -18 -20 -18 -44 -3 -14 9 -38 45 -55 79 -16 35
-133 281 -259 548 -518 1096 -985 2052 -1216 2487 -58 109 -110 218 -117 243
-34 128 58 225 332 346 80 35 141 69 163 90 32 31 36 41 36 85 0 62 -22 107
-57 115 -15 4 -124 -10 -262 -34 -515 -90 -685 -105 -1175 -107 l-410 -2 -27
-31 c-37 -41 -48 -112 -24 -148 21 -32 80 -59 162 -74 162 -29 269 -86 394
-210 86 -86 107 -115 221 -305 388 -651 736 -1295 1191 -2205 454 -906 653
-1345 778 -1718 52 -156 86 -223 125 -249 21 -14 31 -14 67 -3 98 29 195 96
236 163 10 18 68 165 129 327 509 1366 999 2534 1497 3570 185 383 264 521
370 638 62 69 114 104 202 135 155 56 184 81 191 162 10 125 -49 162 -213 134z"/>
<path d="M9776 6473 c20 -43 40 -88 45 -100 13 -35 32 -29 24 7 -13 60 -12 60
307 60 l289 0 -3 -763 c-3 -874 4 -807 -93 -827 -30 -6 -55 -13 -55 -16 0 -2
118 -3 263 -3 144 1 251 4 237 6 -14 2 -42 9 -62 14 -71 18 -68 -21 -68 829
l0 760 279 0 c312 0 319 -1 305 -62 -4 -22 -3 -29 7 -26 13 4 101 189 94 196
-2 3 -18 -7 -35 -22 l-32 -26 -734 0 -735 0 -25 25 c-43 43 -45 28 -8 -52z"/>
<path d="M11996 6468 c-231 -518 -704 -1542 -725 -1568 -20 -24 -44 -40 -82
-52 l-54 -17 150 0 c140 0 148 1 116 14 -30 14 -33 18 -28 48 3 17 75 183 159
367 l154 335 276 3 c213 2 278 -1 285 -10 13 -16 292 -621 309 -668 15 -43 9
-59 -30 -76 -27 -12 -2 -13 199 -13 217 1 227 2 182 16 -27 8 -61 29 -80 48
-25 25 -110 200 -317 647 -480 1039 -450 978 -472 978 -13 0 -26 -15 -42 -52z
m104 -559 c66 -144 120 -263 120 -265 0 -2 -115 -4 -255 -4 -140 0 -255 3
-255 6 0 7 223 501 242 538 13 24 2 46 148 -275z"/>
<path d="M7230 6491 c0 -5 16 -12 36 -15 20 -4 53 -23 76 -44 48 -44 58 -63
478 -974 213 -461 309 -658 319 -658 11 0 113 212 330 688 404 881 415 904
454 946 24 25 46 37 75 42 84 13 38 24 -103 24 -136 0 -184 -10 -115 -24 17
-3 33 -12 36 -21 5 -12 -595 -1341 -601 -1332 -1 1 -138 296 -304 655 -203
440 -300 660 -296 673 4 10 17 22 31 25 65 17 5 24 -196 24 -122 0 -220 -4
-220 -9z"/>
<path d="M9140 6490 c0 -5 13 -10 29 -10 50 0 81 -18 97 -55 12 -30 14 -144
12 -785 -3 -848 5 -772 -90 -795 -48 -12 -26 -13 207 -13 236 0 255 1 205 13
-71 17 -87 38 -95 128 -12 132 -1 1440 12 1463 12 20 71 44 112 44 11 0 21 5
21 10 0 6 -92 10 -255 10 -163 0 -255 -4 -255 -10z"/>
<path d="M12990 6490 c0 -5 10 -10 23 -10 12 0 39 -5 60 -11 70 -19 68 12 65
-824 -3 -740 -3 -745 -24 -765 -11 -12 -43 -27 -70 -35 -42 -11 39 -13 614
-14 l662 -1 0 200 c0 110 -4 200 -8 200 -5 0 -14 -34 -20 -76 -22 -138 -64
-204 -156 -246 -49 -22 -61 -23 -301 -23 -210 0 -259 3 -307 18 -68 21 -111
55 -141 111 -22 41 -22 42 -25 712 -2 442 1 680 8 698 11 30 62 56 110 56 16
0 30 5 30 10 0 6 -93 10 -260 10 -167 0 -260 -4 -260 -10z"/>
<path d="M11905 3664 c25 -53 45 -98 45 -100 0 -2 5 -4 11 -4 6 0 8 11 4 29
-4 20 -1 34 10 45 14 14 52 16 301 16 l284 0 0 -742 c0 -486 -4 -756 -11 -781
-12 -43 -37 -62 -96 -72 -103 -16 -28 -25 217 -25 167 0 260 4 260 10 0 6 -13
10 -29 10 -15 0 -43 5 -61 11 -62 22 -60 0 -60 834 l0 755 279 0 c247 0 281
-2 296 -17 11 -10 15 -27 13 -45 -9 -56 18 -26 60 69 39 88 48 132 19 92 -29
-39 -35 -39 -787 -39 l-731 0 -25 25 c-45 45 -44 27 1 -71z"/>
<path d="M6870 3724 c-128 -23 -196 -39 -260 -61 -321 -110 -549 -348 -621
-651 -28 -115 -23 -301 11 -407 47 -148 143 -289 265 -387 125 -101 328 -173
561 -198 161 -18 528 -8 664 18 58 11 146 28 195 37 l90 17 62 86 c66 91 73
122 17 72 -147 -128 -528 -218 -811 -190 -258 25 -446 110 -613 279 -159 160
-265 398 -277 621 -10 193 44 329 191 476 79 79 105 98 196 143 352 173 791
135 1087 -95 39 -31 59 -41 61 -32 1 8 -12 50 -30 93 -33 77 -35 80 -83 98
-28 10 -102 32 -165 49 -107 28 -130 31 -315 33 -110 2 -211 1 -225 -1z"/>
<path d="M8480 2998 c-183 -403 -350 -767 -371 -809 -42 -85 -82 -125 -134
-135 -74 -14 -29 -24 105 -24 77 0 140 4 140 8 0 4 -14 13 -31 19 -28 11 -31
15 -25 43 3 17 74 181 158 365 l153 335 284 -3 284 -2 69 -150 c38 -82 107
-231 153 -330 106 -227 106 -230 66 -252 -17 -10 -31 -21 -31 -25 0 -5 99 -8
220 -8 121 0 220 4 220 9 0 5 -20 14 -44 20 -62 15 -113 77 -169 203 -25 57
-188 409 -361 783 -246 534 -318 681 -334 683 -16 3 -65 -97 -352 -730z m408
130 c67 -147 122 -270 122 -273 0 -3 -115 -5 -255 -5 -140 0 -255 2 -255 4 0
1 50 113 111 247 61 134 118 259 126 278 8 18 18 30 22 25 4 -5 63 -129 129
-276z"/>
<path d="M14126 3693 c-10 -21 -166 -363 -347 -761 -181 -397 -340 -744 -354
-771 -29 -59 -74 -98 -120 -107 -74 -14 -29 -24 105 -24 77 0 140 4 140 8 0 4
-13 13 -30 19 -20 8 -30 18 -30 33 0 11 71 176 158 365 l157 345 284 -3 283
-2 154 -331 c84 -183 156 -344 160 -358 5 -22 1 -29 -25 -43 -17 -10 -31 -21
-31 -25 0 -5 99 -8 220 -8 121 0 220 4 220 9 0 5 -20 14 -44 20 -83 21 -90 33
-482 882 -277 598 -367 785 -381 787 -13 2 -24 -8 -37 -35z m104 -592 c60
-133 110 -244 110 -246 0 -3 -115 -5 -255 -5 -140 0 -255 2 -255 4 0 3 50 114
111 248 61 134 118 259 126 278 l15 35 19 -37 c10 -20 68 -145 129 -277z"/>
<path d="M9866 3701 c-3 -5 15 -12 40 -16 57 -8 81 -32 89 -87 3 -24 5 -369 3
-766 l-3 -724 -28 -24 c-15 -13 -46 -27 -67 -30 -22 -4 -37 -10 -34 -15 7 -13
491 -12 499 1 3 6 -4 10 -17 10 -13 0 -40 5 -61 11 -70 19 -67 -13 -67 834 l0
755 104 0 c128 0 242 -15 313 -41 75 -29 155 -105 195 -187 31 -63 33 -72 33
-177 0 -104 -2 -115 -30 -170 -54 -106 -173 -179 -312 -192 -76 -7 -84 -23
-10 -23 132 0 301 41 393 95 161 94 224 299 152 493 -37 99 -159 191 -303 227
-33 8 -114 19 -180 25 -149 12 -702 13 -709 1z"/>
<path d="M11266 3701 c-3 -5 15 -11 40 -14 65 -7 83 -29 95 -115 15 -109 7
-1429 -9 -1465 -13 -30 -64 -57 -107 -57 -15 0 -24 -4 -20 -10 8 -13 505 -14
505 -1 0 5 -21 12 -46 16 -29 4 -56 16 -70 30 l-24 24 0 765 0 765 26 20 c14
11 45 23 70 27 24 3 44 10 44 15 0 12 -497 12 -504 0z"/>
<path d="M15120 3700 c0 -5 8 -10 18 -10 9 0 34 -5 55 -11 69 -19 67 10 67
-809 0 -819 2 -790 -67 -809 -21 -6 -46 -11 -55 -11 -10 0 -18 -4 -18 -10 0
-7 227 -10 660 -10 l660 0 0 205 c0 200 -11 265 -24 145 -11 -98 -34 -158 -77
-205 -67 -73 -102 -80 -389 -80 -274 0 -330 9 -394 66 -73 63 -71 45 -71 796
l0 671 24 26 c17 18 39 28 73 32 111 15 32 24 -207 24 -163 0 -255 -4 -255
-10z"/>
</g>
</svg>
