<svg xmlns="http://www.w3.org/2000/svg" width="2094.835" height="199.992" viewBox="0 0 1854 177">
  <defs>
    <style>
      .cls-1 {
        fill: #fff;
        fill-rule: evenodd;
      }
    </style>
  </defs>
  <path id="Vital_Capital" data-name="Vital Capital" class="cls-1" d="M156.951,19.93q0.129-.341,3.643-5.452t6.829-5.849a29.089,29.089,0,0,1,6.309-.738v-1.7H144.984v1.7q6.709-.341,6.711,3.493a10.843,10.843,0,0,1-1.171,4.167L91.563,144.262,32.071,15.5a9.72,9.72,0,0,1-.78-3.635q0-4.315,5.856-3.975v-1.7H-7.081v1.7A19.221,19.221,0,0,1,2.545,10.56q4.683,2.67,11.967,18.23L82.74,176.1h2.471ZM184.008,6.187v1.7q9.1-.453,11.707,3.235t2.6,15.607v127.12q0,11.464-2.341,14.7t-11.968,3.233v1.7H235.13v-1.7q-7.155,0-9.951-1.532a8.033,8.033,0,0,1-3.772-3.859q-0.977-2.328-.976-12.769V25.256q0-9.759.845-12.371t5.464-3.972a22.588,22.588,0,0,1,8.39-1.022v-1.7H184.008ZM403.325,0.395q-1.56,4.089-4.87,4.941a48.48,48.48,0,0,1-10.843.852H260.472q-7.534,0-9.8-.852t-4.61-4.941h-1.951l9.105,20.217h1.952a15.916,15.916,0,0,1-1.041-4.543q0-2.952,2.207-3.691t9.476-.738H313.7V157.145q0,8.625-2.471,11.349T299,171.786v1.7h51.9v-1.7a34.165,34.165,0,0,1-9.041-.85,7.408,7.408,0,0,1-4.423-4.087q-1.628-3.234-1.626-12.088V11.639h49.97a22.772,22.772,0,0,1,6.815.738,3.158,3.158,0,0,1,2.142,3.351,18.451,18.451,0,0,1-.52,4.884h1.951l9.106-20.217h-1.952Zm118.9,155.49a2.4,2.4,0,0,1,.39,1.136,3.672,3.672,0,0,0,.91,1.476q2.991,6.248,2.992,9.087,0,4.2-6.114,4.2v1.7h44.748v-1.7q-10.767,0-16.024-9.606t-5.254-10.744L475.551,3.688h-3.443L402.657,156.673q-4.68,10.227-8.578,12.671a17.773,17.773,0,0,1-9.616,2.442v1.7h28.488v-1.7q-6.375,0-6.374-3.748,0-1.59,2.992-8.405l29.006-63.15h56.234ZM466.35,34.809l25.888,57.017H440.415ZM701.732,173.49V133.283h-1.951q-0.909,20.1-8.769,27.372t-24.746,7.269H642.884q-20.133,0-28.449-6.19t-8.313-21.3V23q0-7.608.911-9.768A8.109,8.109,0,0,1,610.8,9.481q2.861-1.589,10.016-1.59v-1.7H569.439v1.7q10.405,0.229,12.488,3.462t2.081,10.5V158.733q0,7.15-2.666,10.1T569.7,171.786v1.7H701.732ZM963.2,14.365l-8.585-2.84a170.335,170.335,0,0,0-19.577-5.281,133.093,133.093,0,0,0-27.9-2.556q-32.262,0-57.366,12.21T811.325,49.291Q797.99,70.475,797.992,93.416q0,33.963,25.951,58.323T910.122,176.1a234.007,234.007,0,0,0,25.951-1.136q9.69-1.137,42.212-7.269l13.4-17.945-1.691-.455Q979.846,159.52,959.1,165.6a149.87,149.87,0,0,1-42.342,6.076q-32.911,0-56.065-14.935t-33.886-38.106q-10.731-23.171-10.732-41,0-28.848,24.116-49.18T903.437,8.118q37.7,0,65.523,24.192h1.91l-7.154-17.718a1.537,1.537,0,0,0-.521-0.227h0Zm169.625,141.52a2.274,2.274,0,0,1,.39,1.136,3.639,3.639,0,0,0,.91,1.476q3,6.248,2.99,9.087c0,2.8-2.03,4.2-6.11,4.2v1.7h44.75v-1.7q-10.77,0-16.03-9.606t-5.25-10.744L1086.15,3.688h-3.44l-69.45,152.985q-4.68,10.227-8.58,12.671a17.772,17.772,0,0,1-9.615,2.442v1.7h28.485v-1.7q-6.375,0-6.37-3.748,0-1.59,2.99-8.405l29.01-63.15h56.23ZM1076.95,34.809l25.89,57.017h-51.82Zm121.69-24.024q2.61,2.9,2.6,11.747V161q0,10.784-13.52,10.783v1.7h50.6v-1.7q-8.715,0-11.84-2.327t-3.12-14.47V11.866h13.66q20.55,0,30.57,5a36.247,36.247,0,0,1,15.54,14.595,43.2,43.2,0,0,1,5.53,21.978q0,15.9-11.38,25.669t-29.6,9.768v1.7q28.755,0.455,45.53-10.236t16.78-31.958q0-13.875-6.05-22.349t-19.25-14.158q-13.2-5.686-42.34-5.688h-54.63v1.7C1193.26,7.891,1196.91,8.856,1198.64,10.785Zm128.91-4.6v1.7q9.1-.453,11.71,3.235t2.6,15.607v127.12q0,11.464-2.34,14.7t-11.97,3.233v1.7h51.13v-1.7c-4.78,0-8.09-.509-9.96-1.532a8.055,8.055,0,0,1-3.77-3.859q-0.975-2.328-.97-12.769V25.256q0-9.759.84-12.371c0.56-1.739,2.39-3.063,5.46-3.972a22.636,22.636,0,0,1,8.4-1.022v-1.7h-51.13Zm219.32-5.793q-1.56,4.089-4.87,4.941a48.467,48.467,0,0,1-10.84.852H1404.02c-5.03,0-8.29-.284-9.81-0.852s-3.05-2.215-4.61-4.941h-1.95l9.11,20.217h1.95a15.732,15.732,0,0,1-1.04-4.543c0-1.968.73-3.2,2.2-3.691s4.63-.738,9.48-0.738h47.89V157.145q0,8.625-2.47,11.349t-12.22,3.292v1.7h51.9v-1.7a34.1,34.1,0,0,1-9.04-.85,7.426,7.426,0,0,1-4.43-4.087q-1.62-3.234-1.62-12.088V11.639h49.97a22.752,22.752,0,0,1,6.81.738,3.153,3.153,0,0,1,2.14,3.351,18.243,18.243,0,0,1-.52,4.884h1.96l9.1-20.217h-1.95Zm118.89,155.49a2.274,2.274,0,0,1,.39,1.136,3.755,3.755,0,0,0,.92,1.476q2.985,6.248,2.99,9.087,0,4.2-6.12,4.2v1.7h44.75v-1.7q-10.77,0-16.02-9.606t-5.26-10.744L1619.1,3.688h-3.45L1546.2,156.673q-4.68,10.227-8.58,12.671a17.756,17.756,0,0,1-9.61,2.442v1.7h28.49v-1.7q-6.375,0-6.38-3.748,0-1.59,2.99-8.405l29.01-63.15h56.23ZM1609.89,34.809l25.89,57.017h-51.82ZM1845.28,173.49V133.283h-1.95q-0.915,20.1-8.77,27.372t-24.75,7.269h-23.38q-20.13,0-28.45-6.19t-8.31-21.3V23q0-7.608.91-9.768a8.071,8.071,0,0,1,3.77-3.748q2.865-1.589,10.02-1.59v-1.7h-51.39v1.7q10.41,0.229,12.49,3.462t2.08,10.5V158.733q0,7.15-2.66,10.1t-11.65,2.951v1.7h132.04Z"/>
</svg>
